Genre:Comedy | Drama 
Language: English
IMDB:http://www.imdb.com/title/tt1341167/
Source:BluRay.X264-AMIABLE
Subtitles: English 

General
Complete name : Four.Lions.2010.480p.BRRip.XviD.Ac3.Feel-Free
Format : AVI
Format/Info : Audio Video Interleave
File size : 1.64 GiB
Duration : 1h 37mn
Overall bit rate : 2 409 Kbps
Video #0
Codec ID : XVID
Codec ID/Hint : XviD
Duration : 1h 37mn
Bit rate : 2 016 Kbps
Width : 652 pixels
Height : 352 pixels
Display aspect ratio : 1.852
Frame rate : 25.000 fps
Resolution : 24 bits
Colorimetry : 4:2:0
Scan type : Progressive
Bits/(Pixel*Frame) : 0.351
Stream size : 1.37 GiB (84%)
Writing library : XviD 1.2.1 (UTC 2008-12-04)
Audio #1
ID : 1
Format : AC-3
Format/Info : Audio Coding 3
Codec ID : 2000
Duration : 1h 37mn
Bit rate mode : Constant
Bit rate : 384 Kbps
Channel(s) : 6 channels
Channel positions : Front: L C R, Surround: L R, LFE
Sampling rate : 48.0 KHz
Stream size : 267 MiB (16%)
Alignment : Split accross interleaves
Interleave, duration : 40 ms (1.00 video frame)
Interleave, preload duration : 500 ms
Plot
Four Lions tells the story of a group of British jihadists who push their abstract dreams of glory to the breaking point





================================== 
http://thepiratebay.org/user/hiest
==================================








ScreenShtot:
 
http://www.starshare.ro/bitbucket/vlcsnap2010-09-11-15h44m21s187.jpg
 
http://www.starshare.ro/bitbucket/vlcsnap2010-09-11-15h44m27s244.jpg
 
http://www.starshare.ro/bitbucket/vlcsnap2010-09-11-15h44m39s104.jpg
 
http://www.starshare.ro/bitbucket/vlcsnap2010-09-11-15h44m39s104.jpg
 
http://www.starshare.ro/bitbucket/vlcsnap2010-09-11-15h45m09s157.jpg